<svg width="48" height="48" viewBox="0 0 48 48" fill="none" xmlns="http://www.w3.org/2000/svg">
<path d="M32.4375 0H15.5625C11.6855 0 8.53125 3.15422 8.53125 7.03125V32.3438C8.53125 36.2208 11.6855 39.375 15.5625 39.375H19.7812V48H28.2188V39.375H32.4375C36.3145 39.375 39.4688 36.2208 39.4688 32.3438V7.03125C39.4688 3.15422 36.3145 0 32.4375 0ZM25.4062 45.1875H22.5938V42.1875H25.4062V45.1875ZM22.5938 39.375V33.75H25.4062V39.375H22.5938ZM36.6562 32.3438C36.6562 34.67 34.7637 36.5625 32.4375 36.5625H28.2188V33.75H31.0312V30.9375H16.9688V33.75H19.7812V36.5625H15.5625C13.2363 36.5625 11.3438 34.67 11.3438 32.3438V7.03125C11.3438 4.70503 13.2363 2.8125 15.5625 2.8125H32.4375C34.7637 2.8125 36.6562 4.70503 36.6562 7.03125V32.3438Z" fill="#F88C8C"/>
<path d="M24 10.1836C22.9826 11.6577 22.2762 12.6328 21.3773 14.1823C19.9467 16.6485 19.7812 17.7037 19.7812 18.2829C19.7812 20.6092 21.6738 22.5017 24 22.5017C26.3262 22.5017 28.2188 20.6092 28.2188 18.2829C28.2188 17.7037 28.0533 16.6485 26.6227 14.1823C25.7238 12.6328 25.0173 11.6575 24 10.1836ZM24 19.6892C23.2246 19.6892 22.5938 19.0583 22.5938 18.2846C22.6052 17.8548 23.1901 16.6294 24 15.2648C24.8095 16.6289 25.3942 17.8537 25.4062 18.2842C25.4057 19.0589 24.775 19.6892 24 19.6892Z" fill="#F88C8C"/>
<path d="M14.1562 26.125C14.1562 27.2296 15.0517 28.125 16.1562 28.125H31.8438C32.9483 28.125 33.8438 27.2296 33.8438 26.125V7.625C33.8438 6.52043 32.9483 5.625 31.8438 5.625H16.1562C15.0517 5.625 14.1562 6.52043 14.1562 7.625V26.125ZM16.9688 8.4375H31.0312V25.3125H16.9688V8.4375Z" fill="#F88C8C"/>
</svg>
